<svg data-v-fde0c5aa="" xmlns="http://www.w3.org/2000/svg" viewBox="0 0 300 300" class="iconAbove"><!----><defs data-v-fde0c5aa=""><linearGradient data-v-fde0c5aa="" gradientTransform="rotate(25)" id="2febb600-9113-4e3d-bd2e-b1ba8ae6181b" x1="0%" y1="0%" x2="100%" y2="0%"><stop data-v-fde0c5aa="" offset="0%" stop-color="#177775" stop-opacity="1"></stop><stop data-v-fde0c5aa="" offset="100%" stop-color="#28D2BF" stop-opacity="1"></stop></linearGradient></defs><rect data-v-fde0c5aa="" fill="url(#2febb600-9113-4e3d-bd2e-b1ba8ae6181b)" x="0" y="0" width="300px" height="300px" class="logo-background-square"></rect><defs data-v-fde0c5aa=""><!----></defs><g data-v-fde0c5aa="" id="5b97cc00-5a7b-4c05-ac63-881727be4837" fill="#ffffff" transform="matrix(4.746257864070314,0,0,4.746257864070314,17.342095584804664,186.21978976703605)"><path d="M0.80 2.44L0.69 2.44L0.80 2.44ZM0.69 2.44L0.80 2.44L1.72 3.05Q2.06 2.69 2.51 2.55Q2.97 2.41 3.42 2.41L3.42 2.41Q3.84 2.41 4.30 2.54Q4.77 2.67 5.38 3.09L5.38 3.09L5.95 3.58L4.70 5.29Q4.34 4.94 4.06 4.79Q3.78 4.65 3.56 4.63Q3.35 4.61 3.19 4.67Q3.04 4.73 2.93 4.80L2.93 4.80L2.93 10.37L3.05 10.50L0.56 10.50L0.69 10.37L0.69 2.44ZM8.57 7.83L8.57 7.83Q8.57 8.13 8.80 8.29Q9.03 8.46 9.30 8.46Q9.58 8.47 9.81 8.32Q10.05 8.18 10.07 7.87L10.07 7.87L12.10 7.87Q12.10 8.61 11.89 9.11Q11.69 9.62 11.33 9.94Q10.96 10.26 10.45 10.40Q9.94 10.54 9.31 10.54L9.31 10.54Q7.94 10.54 7.17 9.83Q6.40 9.11 6.40 7.84L6.40 7.84L6.40 5.14Q6.40 4.58 6.55 4.08Q6.69 3.58 7.04 3.21Q7.38 2.84 7.95 2.63Q8.51 2.41 9.34 2.41L9.34 2.41Q10.65 2.41 11.37 3.04Q12.08 3.68 12.08 5.00L12.08 5.00Q12.08 5.74 11.77 6.20Q11.45 6.65 10.95 6.95Q10.44 7.25 9.81 7.44Q9.18 7.63 8.57 7.83ZM10.01 5.03L10.01 5.03Q10.01 4.76 9.79 4.63Q9.56 4.49 9.29 4.49Q9.02 4.49 8.79 4.62Q8.57 4.75 8.57 4.98L8.57 4.98L8.57 5.77Q9.04 5.68 9.33 5.60Q9.62 5.52 9.77 5.43Q9.93 5.35 9.97 5.25Q10.01 5.15 10.01 5.03ZM15.95 4.58L15.95 4.58Q15.76 4.58 15.64 4.70Q15.51 4.83 15.51 5.03L15.51 5.03L15.51 7.92Q15.51 8.11 15.64 8.23Q15.76 8.36 15.95 8.36L15.95 8.36L17.63 8.36L17.81 8.27L17.81 10.60L17.61 10.50L15.95 10.50Q15.37 10.50 14.89 10.37Q14.41 10.23 14.05 9.93Q13.69 9.63 13.49 9.14Q13.29 8.65 13.29 7.94L13.29 7.94L13.29 5.00Q13.29 4.44 13.49 3.96Q13.69 3.49 14.04 3.14Q14.39 2.80 14.87 2.61Q15.34 2.42 15.90 2.42L15.90 2.42L17.47 2.42L17.67 2.32L17.67 4.66L17.49 4.58L15.95 4.58ZM21.87 2.38L21.87 2.38Q22.50 2.38 23.03 2.55Q23.56 2.73 23.95 3.07Q24.33 3.42 24.55 3.92Q24.77 4.42 24.77 5.08L24.77 5.08L24.77 7.85Q24.77 8.51 24.55 9.02Q24.33 9.52 23.95 9.86Q23.58 10.21 23.04 10.39Q22.51 10.57 21.88 10.57L21.88 10.57Q21.24 10.57 20.71 10.39Q20.17 10.21 19.79 9.86Q19.40 9.52 19.19 9.02Q18.97 8.51 18.97 7.85L18.97 7.85L18.97 5.08Q18.97 4.42 19.19 3.92Q19.40 3.42 19.79 3.07Q20.17 2.73 20.71 2.55Q21.24 2.38 21.87 2.38ZM22.55 7.85L22.55 5.05Q22.55 4.80 22.34 4.67Q22.13 4.54 21.88 4.54Q21.62 4.54 21.41 4.67Q21.20 4.80 21.20 5.05L21.20 5.05L21.20 7.85Q21.20 8.11 21.40 8.24Q21.60 8.37 21.85 8.37Q22.11 8.37 22.32 8.25Q22.54 8.12 22.55 7.85L22.55 7.85ZM28.48 10.50L28.48 10.50L25.93 10.50L26.05 10.35L26.05-0.11L25.93-0.29L28.46-0.29L28.34-0.11L28.34 10.33L28.34 10.33L28.48 10.50ZM31.81 7.83L31.81 7.83Q31.81 8.13 32.04 8.29Q32.27 8.46 32.54 8.46Q32.82 8.47 33.05 8.32Q33.29 8.18 33.31 7.87L33.31 7.87L35.34 7.87Q35.34 8.61 35.13 9.11Q34.93 9.62 34.57 9.94Q34.20 10.26 33.69 10.40Q33.18 10.54 32.55 10.54L32.55 10.54Q31.18 10.54 30.41 9.83Q29.64 9.11 29.64 7.84L29.64 7.84L29.64 5.14Q29.64 4.58 29.79 4.08Q29.93 3.58 30.28 3.21Q30.62 2.84 31.19 2.63Q31.75 2.41 32.58 2.41L32.58 2.41Q33.89 2.41 34.61 3.04Q35.32 3.68 35.32 5.00L35.32 5.00Q35.32 5.74 35.01 6.20Q34.69 6.65 34.19 6.95Q33.68 7.25 33.05 7.44Q32.42 7.63 31.81 7.83ZM33.25 5.03L33.25 5.03Q33.25 4.76 33.03 4.63Q32.80 4.49 32.53 4.49Q32.26 4.49 32.03 4.62Q31.81 4.75 31.81 4.98L31.81 4.98L31.81 5.77Q32.28 5.68 32.57 5.60Q32.86 5.52 33.01 5.43Q33.17 5.35 33.21 5.25Q33.25 5.15 33.25 5.03ZM42.24 10.49L42.07 10.49L40.67 9.60Q40.45 9.91 40.18 10.10Q39.91 10.29 39.65 10.39Q39.38 10.49 39.14 10.51Q38.91 10.54 38.75 10.54L38.75 10.54Q38.16 10.54 37.71 10.33Q37.25 10.12 36.95 9.76Q36.65 9.39 36.49 8.92Q36.33 8.44 36.33 7.90L36.33 7.90Q36.33 7.35 36.51 6.86Q36.68 6.37 37.04 6.00Q37.39 5.63 37.93 5.41Q38.47 5.19 39.21 5.19L39.21 5.19L40.01 5.19Q40.01 4.80 39.85 4.69Q39.69 4.58 39.40 4.58L39.40 4.58L37.30 4.58L37.13 4.69L37.13 2.37L37.32 2.45L39.58 2.45Q40.17 2.45 40.65 2.60Q41.13 2.74 41.49 3.07Q41.85 3.39 42.04 3.88Q42.24 4.38 42.24 5.08L42.24 5.08L42.24 10.49ZM40.10 7.88L40.10 7.06L39.20 7.06Q38.88 7.06 38.64 7.23Q38.40 7.41 38.40 7.70L38.40 7.70Q38.40 7.84 38.46 7.99Q38.51 8.13 38.64 8.23Q38.77 8.33 38.98 8.35Q39.20 8.37 39.54 8.26L39.54 8.26L40.10 7.88ZM43.74 2.44L43.62 2.44L43.74 2.44ZM43.62 2.44L43.74 2.44L44.66 3.05Q45.00 2.69 45.45 2.55Q45.91 2.41 46.35 2.41L46.35 2.41Q46.77 2.41 47.24 2.54Q47.71 2.67 48.31 3.09L48.31 3.09L48.89 3.58L47.64 5.29Q47.28 4.94 47.00 4.79Q46.72 4.65 46.50 4.63Q46.28 4.61 46.13 4.67Q45.98 4.73 45.86 4.80L45.86 4.80L45.86 10.37L45.99 10.50L43.50 10.50L43.62 10.37L43.62 2.44ZM49.43 2.42L49.55 2.42L50.55 2.98Q50.74 2.86 50.92 2.75Q51.10 2.65 51.31 2.57Q51.52 2.49 51.77 2.46Q52.02 2.42 52.35 2.42L52.35 2.42Q52.96 2.42 53.49 2.56Q54.01 2.70 54.39 3.02Q54.77 3.35 54.99 3.86Q55.20 4.38 55.20 5.12L55.20 5.12L55.20 10.37L55.34 10.50L52.84 10.50L52.98 10.39L52.98 5.04Q52.98 4.80 52.77 4.68Q52.57 4.56 52.33 4.56Q52.08 4.56 51.88 4.68Q51.67 4.80 51.67 5.04L51.67 5.04L51.67 10.37L51.80 10.50L49.31 10.50L49.43 10.37L49.43 2.42Z"></path></g><defs data-v-fde0c5aa=""><!----></defs><g data-v-fde0c5aa="" id="403400b9-055e-4d99-9979-e1b3fe09b7a6" stroke="none" fill="#ffffff" transform="matrix(1.1485944393160898,0,0,1.1485944393160898,92.57027584342548,57.72690314958349)"><path d="M73.591 21.324v-3.697c0-.161-.034-.321-.086-.479l21.103-6.051L50.02 5 5.392 11.338l13.302 3.75v5.134a1.447 1.447 0 00-1.141 1.323h-.01c0 .012.005.024.006.036-.001.02-.006.039-.006.059h.009v7.307h.6v-6.686c.052.022.107.041.164.059v7.226h.6v-7.124c.026.001.051.005.077.005.03 0 .057-.004.087-.005v7.125h.6v-7.229c.057-.019.112-.038.164-.061v6.69h.6V21.64v-.096h-.01a1.447 1.447 0 00-1.141-1.323v-4.965l7.161 2.019a1.497 1.497 0 00-.047.351v9.636c-4.846 4.993-7.851 11.781-7.892 19.263l-7.786 22.076h10.433V74.1h.9v.002h-.9c0 5.826 4.739 10.565 10.565 10.565h5.85V95h44.378V66.144c5.104-5.241 7.91-12.138 7.91-19.463.001-11.238-6.679-20.939-16.274-25.357zm-49.488 28.93a3.44 3.44 0 116.881.001 3.44 3.44 0 01-6.881-.001zM80.42 65.138l-.263.264V93.2H54.919V82.867h-7.65c-4.833 0-8.764-3.932-8.764-8.765h-.9V74.1h.9v-7.299h-9.689l7.042-19.967v-.154c0-14.394 11.71-26.105 26.104-26.105 14.394 0 26.104 11.711 26.104 26.105 0 6.971-2.715 13.526-7.646 18.458zM47.003 50.254a3.44 3.44 0 11-6.882 0 3.44 3.44 0 016.882 0zm32.63-12.237a5.762 5.762 0 01-.392 7.461 5.778 5.778 0 01-3.483 4.862v.021c-2.357 1.373-3.767 3.716-4.193 6.528h-2.182l-1.216-.003H66.09v-6.2c0-2.276-1.427-4.435-3.226-5.203-.858-.334-1.753-.892-2.404-1.621a5.763 5.763 0 01-6.487.01 5.843 5.843 0 01-3.214.959 5.903 5.903 0 01-2.321-11.327 5.777 5.777 0 015.644-4.541c.147 0 .28.013.417.019a5.787 5.787 0 014.786-2.524c.984 0 1.908.245 2.719.682a5.756 5.756 0 017.114.586 5.816 5.816 0 011.35-.166c2.338 0 4.359 1.408 5.262 3.424a5.779 5.779 0 013.903 7.033z"></path></g><!----></svg>